<?xml version="1.0" encoding="utf-8"?>
<!-- Generator: Adobe Illustrator 16.0.3, SVG Export Plug-In . SVG Version: 6.00 Build 0)  -->
<!DOCTYPE svg PUBLIC "-//W3C//DTD SVG 1.1//EN" "http://www.w3.org/Graphics/SVG/1.1/DTD/svg11.dtd">
<svg version="1.1" id="Layer_3" xmlns="http://www.w3.org/2000/svg" xmlns:xlink="http://www.w3.org/1999/xlink" x="0px" y="0px"
	 width="400px" height="400px" viewBox="0 0 400 400" enable-background="new 0 0 400 400" xml:space="preserve">
<g>
	<path fill="#63727A" d="M367.935,32.958c-0.527-0.669-1.331-1.058-2.182-1.058H155.316c-25.099,0.053-40.525,10.891-45.844,32.214
		L33.011,369.069c-0.209,0.836-0.024,1.713,0.502,2.391c0.529,0.676,1.337,1.069,2.195,1.069h229.2l0,0
		c13.165-0.005,26.295-10.467,29.269-23.31l74.281-313.897C368.655,34.498,368.463,33.625,367.935,32.958z"/>
	<g>
		<path d="M35.708,369.746h229.2c11.925,0,23.876-9.562,26.563-21.17l74.282-313.893h-210.43
			c-19.516,0.041-37.247,6.435-43.153,30.11L35.708,369.746z"/>
	</g>
	<g>
		<path fill="#63727A" d="M281.732,248.236H79.812l44.416-175.861c5.673-22.738,19.748-27.398,39.132-27.398h185.388
			l-42.463,183.689C303.794,239.455,292.781,248.232,281.732,248.236z M82.967,245.78h198.766c9.97,0,19.91-7.928,22.158-17.663
			l41.766-180.683H163.359c-22.144,0-32.104,6.92-36.749,25.54L82.967,245.78z"/>
	</g>
	<g>
		<g>
			<g>
				<polygon fill="#FFFFFF" points="112.878,346.836 118.397,354.479 160.254,354.479 177.245,287.173 160.092,287.173 
					145.499,344.978 130.251,344.978 144.842,287.173 123.236,287.173 121.865,288.394 126.162,294.188 				"/>
			</g>
			<g>
				<polygon fill="#FFFFFF" points="114.148,310.762 118.248,294.536 112.727,286.885 78.386,286.885 69.004,294.536 63.29,317.186 
					92.286,329.372 88.352,344.978 73.178,344.978 75.024,337.654 59.873,330.703 55.802,346.836 61.321,354.479 95.663,354.479 
					105.043,346.836 110.765,324.18 81.76,311.983 85.699,296.381 100.873,296.381 98.987,303.858 				"/>
			</g>
			<g>
				<polygon fill="#FFFFFF" points="232.561,294.536 227.043,286.885 185.187,286.885 168.197,354.192 185.348,354.192 
					199.943,296.381 215.194,296.381 200.602,354.192 222.197,354.192 223.574,352.963 219.281,347.178 				"/>
			</g>
			<g>
				<polygon fill="#FFFFFF" points="285.624,310.762 289.719,294.536 284.2,286.885 249.859,286.885 240.479,294.536 
					234.758,317.186 263.767,329.372 259.822,344.978 244.651,344.978 246.497,337.654 231.35,330.703 227.278,346.836 
					232.801,354.479 267.139,354.479 276.516,346.836 282.237,324.18 253.236,311.983 257.182,296.381 272.351,296.381 
					270.459,303.858 				"/>
			</g>
		</g>
		<g>
			<polygon fill="#BEC0C2" points="59.873,330.703 66.085,340.098 64.727,345.477 67.845,349.7 92.081,349.7 96.978,345.906 
				105.043,346.836 95.663,354.479 61.321,354.479 55.802,346.836 			"/>
			<polygon fill="#BEC0C2" points="88.352,344.978 96.978,345.906 101.815,326.745 72.532,314.444 77.313,295.491 69.004,294.536 
				63.29,317.186 92.286,329.372 			"/>
			<polygon fill="#BEC0C2" points="106.137,291.634 82.362,291.634 77.313,295.491 85.699,296.381 100.873,296.381 98.987,303.858 
				108.011,301.072 109.311,295.938 			"/>
			<polygon fill="#BEC0C2" points="231.35,330.703 237.56,340.098 236.201,345.477 239.32,349.7 263.555,349.7 268.446,345.906 
				276.516,346.836 267.139,354.479 232.801,354.479 227.278,346.836 			"/>
			<polygon fill="#BEC0C2" points="259.822,344.978 268.446,345.906 273.288,326.745 244.005,314.444 248.789,295.491 
				240.479,294.536 234.758,317.186 263.767,329.372 			"/>
			<polygon fill="#BEC0C2" points="277.611,291.634 253.836,291.634 248.789,295.491 257.182,296.381 272.351,296.381 
				270.459,303.858 279.489,301.072 280.784,295.939 			"/>
			<polygon fill="#BEC0C2" points="121.865,288.394 135.293,291.656 121.707,345.477 124.875,349.735 152.795,349.735 
				160.254,354.479 118.397,354.479 112.878,346.836 126.162,294.188 			"/>
			<polygon fill="#BEC0C2" points="160.092,287.173 167.54,291.634 152.795,349.735 145.499,344.978 			"/>
			<g>
				<polygon fill="#BEC0C2" points="192.647,291.633 185.187,286.885 168.197,354.192 185.348,354.192 177.903,349.731 				"/>
			</g>
			<g>
				<polygon fill="#BEC0C2" points="210.147,349.709 223.736,295.889 220.568,291.633 192.647,291.633 199.943,296.381 
					215.194,296.381 200.602,354.192 222.197,354.192 223.574,352.963 				"/>
			</g>
		</g>
	</g>
	<g>
		<g>
			<path fill="#FFFFFF" d="M78.162,258.55l-0.439,0.365l1.431,1.869l-4.328,17.705h5.979l0.44-0.368l-1.487-1.705l1.168-4.784
				l9.253-2.882l1.902-7.785l-1.846-2.415H78.162z M86.272,266.633l-4.439,1.293l1.457-5.956l4.126-0.007L86.272,266.633z"/>
		</g>
		<g>
			<polygon fill="#FFFFFF" points="127.723,258.55 123.297,258.55 121.543,265.726 117.198,266.771 119.204,258.55 113.245,258.55 
				112.803,258.915 114.232,260.784 109.909,278.489 114.334,278.489 116.261,270.603 120.584,269.64 118.422,278.489 
				124.389,278.489 124.827,278.121 123.354,276.416 			"/>
		</g>
		<g>
			<path fill="#FFFFFF" d="M152.355,258.55l-3.021,2.391l-3.697,15.128l1.849,2.421h8.119l3.007-2.416l3.697-15.133l-1.836-2.391
				H152.355z M154.38,275.281h-4.125l3.277-13.418h4.12L154.38,275.281z"/>
		</g>
		<g>
			<polygon fill="#FFFFFF" points="231.194,260.94 229.337,258.55 218.629,258.55 213.757,278.489 218.186,278.489 222.244,261.863 
				226.545,261.863 222.482,278.489 228.448,278.489 228.887,278.121 227.412,276.416 			"/>
		</g>
		<g>
			<polygon fill="#FFFFFF" points="258.839,258.55 252.877,258.55 252.436,258.915 253.864,260.784 249.539,278.489 
				255.507,278.489 255.947,278.121 254.475,276.416 			"/>
		</g>
		<g>
			<polygon fill="#FFFFFF" points="290.883,276.522 288.514,268.733 296.4,258.55 292.138,258.55 287.555,264.708 285.986,258.55 
				280.027,258.55 279.577,258.907 282.004,260.694 284.254,268.808 276.765,278.489 281.071,278.489 285.439,272.637 
				286.944,278.489 292.908,278.489 293.355,278.121 			"/>
		</g>
		<g>
			<polygon fill="#FFFFFF" points="190.664,275.281 185.473,275.281 186.717,270.177 191.014,270.173 191.819,266.885 
				187.521,266.89 188.75,261.863 193.604,261.863 194.824,263.613 195.294,263.281 196.449,258.55 183.602,258.55 183.161,258.915 
				184.588,260.784 180.265,278.489 191.902,278.489 193.042,273.821 192.747,273.497 			"/>
		</g>
	</g>
	<g>
		<path fill="none" d="M247.153,198.409"/>
		<g>
			<polygon fill="#F9A01B" points="88.313,242.542 201.905,180.339 124.875,242.542 218.347,188.833 216.803,199.662 232.391,191 
				267.602,224.291 286.344,167.986 313.446,166.243 299.659,132.089 324.208,112.877 292.461,100.513 300.504,66.362 
				273.484,78.729 259.563,49.349 237.928,70.96 198.989,53.485 193.629,88.258 158.926,95.781 179.463,108.154 158.803,118.521 
				176.35,120.043 104.152,176.201 176.775,137.622 98.866,196.928 181.799,153.703 93.214,220.303 190.847,168.279 			"/>
			<g>
				<path fill="#E56020" d="M296.18,132.587c-1.292,31.217-27.635,55.472-58.861,54.179c-31.214-1.282-55.469-27.636-54.174-58.847
					c1.281-31.22,27.638-55.478,58.844-54.188C273.21,75.022,297.465,101.373,296.18,132.587z"/>
				<path fill="#B95915" d="M246.587,179.055c-31.208-1.297-55.474-27.648-54.181-58.86c0.586-14.445,6.557-27.387,15.883-37.006
					c-14.518,9.691-24.378,25.94-25.145,44.731c-1.295,31.21,22.96,57.565,54.174,58.847c16.776,0.698,32.145-5.999,42.968-17.177
					C270.675,176.015,259.023,179.568,246.587,179.055z"/>
				<path d="M296.204,130.91c0.028-2.025-0.054-4.029-0.237-6.001c-3.255-2.28-7.15-4.01-11.736-4.601
					c-0.874-0.108-1.705-0.16-2.552-0.223c-0.549-3.738-1.396-7.396-2.521-10.955c0.587,0.037,1.178,0.063,1.771,0.103
					c3.98,0.296,7.898,0.748,11.77,1.309c-0.545-1.439-1.145-2.849-1.788-4.236c-4.353-0.662-8.769-1.174-13.242-1.511
					c-0.015,0-0.031,0-0.048,0c-1.431-3.64-3.186-7.145-5.23-10.479c2.891-0.597,5.469-1.775,7.559-3.751
					c-1.07-1.082-2.182-2.126-3.333-3.121c-1.819,1.671-4.176,2.557-6.87,2.915c-0.414-0.577-0.824-1.16-1.258-1.718
					c-3.845-4.999-8.278-9.269-13.16-12.743c-4.255-1.225-8.716-1.979-13.34-2.165c-0.25-0.011-0.504-0.005-0.759-0.018
					c8.593,3.382,16.271,9.06,22.445,16.664c-5.887-0.565-12.672-2.542-19.387-4.509c-1.984-0.586-3.928-1.159-5.811-1.68
					c-11.427-3.156-20.216-3.661-26.81-3.091c-4.898,2.798-9.344,6.306-13.191,10.392c7.12-2.971,21.49-8.044,38.919-3.22
					c1.854,0.514,3.777,1.074,5.732,1.644c7.707,2.268,16.356,4.792,23.818,4.871c2.058,3.075,3.844,6.313,5.321,9.695
					c-1.467-0.068-2.924-0.116-4.383-0.14c-36.324-0.624-67.465,10.249-84.748,27.584c0.096,3.443,0.489,6.813,1.178,10.089
					c4.875-7,12.094-13.318,21.41-18.559c17.578-9.879,40.908-15.081,65.697-14.653c0.853,0.013,1.713,0.051,2.563,0.081
					c1.252,3.586,2.182,7.297,2.78,11.102c-15.964,0.679-26.314,10.64-38.195,21.245c-10.671,9.545-23.679,19.052-42.732,24.772
					c1.796,2.208,3.75,4.271,5.858,6.18c17.942-7.225,29.865-18.478,39.939-27.482c11.438-10.229,21.253-20.034,35.671-20.517
					c0.377,3.989,0.389,8.046,0.024,12.148c-1.94,22.161-14.771,40.946-32.277,50.218c4.48-0.422,8.816-1.371,12.944-2.792
					c1.405-1.16,2.771-2.378,4.091-3.679c11.471-11.293,18.596-26.695,20.055-43.329c0.365-4.167,0.363-8.296,0.024-12.367
					c0.722,0.076,1.432,0.138,2.174,0.263C289.255,125.451,293.158,127.928,296.204,130.91z"/>
			</g>
		</g>
	</g>
</g>
<g>
	<g>
		<defs>
			<path id="SVGID_1_" d="M290.15,176.27l21.335,0.058l9.05-5.401l-28.637-0.031L290.15,176.27z M213.621,58.625l28.404,14.752
				l2.336,1.208l18.359-29.421L213.621,58.625z"/>
		</defs>
		<clipPath id="SVGID_2_">
			<use xlink:href="#SVGID_1_"  overflow="visible"/>
		</clipPath>
		<path clip-path="url(#SVGID_2_)" fill="none" stroke="#BF2F38" stroke-width="0.288" d="M252.107,188.944
			c-33.213,0-60.151-26.932-60.151-60.15c0-33.223,26.938-60.15,60.151-60.15c33.224,0,60.159,26.928,60.159,60.15
			C312.268,162.013,285.331,188.944,252.107,188.944z"/>
	</g>
</g>
</svg>
